<svg width="170" height="122" viewBox="0 0 170 122" fill="none" xmlns="http://www.w3.org/2000/svg">
<path d="M156.542 0.916504H13.4582C6.48565 0.916504 0.833252 6.68083 0.833252 13.7915V108.208C0.833252 115.319 6.48565 121.083 13.4582 121.083H156.542C163.514 121.083 169.167 115.319 169.167 108.208V13.7915C169.167 6.68083 163.514 0.916504 156.542 0.916504Z" fill="url(#paint0_radial_563_985)"/>
<path d="M169.167 13.7915H0.833252V43.8331H169.167V13.7915Z" fill="url(#paint1_radial_563_985)"/>
<path d="M13.4583 52.4165H122.875V73.8748H13.4583V52.4165ZM131.292 52.4165V69.5832H156.541V52.4165H131.292Z" fill="url(#paint2_radial_563_985)"/>
<path opacity="0.45" d="M156.541 86.75H13.4583V91.0417H156.541V86.75Z" fill="url(#paint3_radial_563_985)"/>
<path opacity="0.45" d="M156.541 95.333H13.4583V99.6247H156.541V95.333Z" fill="url(#paint4_radial_563_985)"/>
<path opacity="0.45" d="M72.3749 103.917H13.4583V108.208H72.3749V103.917Z" fill="url(#paint5_radial_563_985)"/>
<path opacity="0.3" d="M43.3751 70.7032H43.3373C41.2396 70.8845 39.2777 69.6276 38.5271 67.6218C38.2935 66.6794 38.3241 65.6891 38.6155 64.7636C39.0499 63.0117 39.3009 61.2177 39.3646 59.4118C34.163 61.5448 29.4547 64.7605 25.5402 68.8535C24.7268 69.7032 23.3918 69.7196 22.5586 68.89C21.7254 68.0604 21.7094 66.6991 22.5229 65.8493C27.2171 60.9377 32.9402 57.1729 39.2636 54.8369C40.2275 54.341 41.3789 54.4147 42.2744 55.0298C43.1699 55.6448 43.6697 56.7052 43.5814 57.8025C43.6477 60.4626 43.3646 63.1199 42.7397 65.7034C42.6766 65.9609 42.6092 66.2442 42.5924 66.3901C42.6513 66.2957 42.9543 66.3901 43.3625 66.3901C45.7779 66.0881 48.0675 65.1224 49.9864 63.5962C51.2932 62.7262 52.6555 61.9463 54.0643 61.2616C55.2275 60.5849 56.6791 60.7077 57.7171 61.5706C58.3213 62.1173 58.6789 62.8931 58.7061 63.7164C58.9931 63.5474 59.2624 63.3489 59.5099 63.1241C59.9226 62.7593 60.3615 62.4265 60.8229 62.1285C62.6151 60.826 65.0846 61.1271 66.5252 62.8237C66.7509 63.1396 66.9349 63.4845 67.0723 63.8494C67.1396 63.9567 67.5815 63.9911 68.078 63.8151C68.8564 63.5035 69.6046 63.1185 70.3127 62.6649C70.9313 62.2959 71.5752 61.9268 72.2064 61.6135C74.2819 60.4353 76.8021 60.4127 78.8977 61.5534C79.1702 61.7281 79.4316 61.9202 79.6804 62.1285C79.812 62.2432 79.9528 62.3465 80.1012 62.4375C80.5773 62.5231 81.0644 62.5231 81.5405 62.4375C90.111 62.0159 98.6972 62.8147 107.051 64.8108L107.788 64.9567C108.886 65.2164 109.588 66.3124 109.381 67.4422C109.173 68.5721 108.129 69.3344 107.014 69.1711L106.285 69.0338C98.3199 67.1272 90.1357 66.3432 81.9613 66.7034C80.7215 66.9253 79.4454 66.787 78.279 66.3043C77.8488 66.0833 77.445 65.8126 77.0755 65.4974C76.9528 65.3916 76.8235 65.2941 76.6883 65.2056C75.7928 64.8799 74.8009 64.9857 73.9908 65.4931C73.4521 65.7506 72.9429 66.0596 72.4295 66.3515C71.4869 66.9531 70.4873 67.4564 69.4458 67.8536C67.3636 68.8032 64.9141 68.1502 63.5541 66.2828C63.4348 66.0816 63.3294 65.8723 63.2385 65.6562C63.1549 65.6829 63.0744 65.7189 62.9986 65.7635C62.7045 65.959 62.4233 66.1741 62.1569 66.4073C61.5525 66.9649 60.8721 67.4304 60.1369 67.7892C58.9421 68.3291 57.5758 68.3103 56.3957 67.7377C55.5662 67.3356 54.9338 66.6054 54.6451 65.7163C53.8034 66.1755 53.0038 66.6819 52.1748 67.2098C49.6332 69.2151 46.5773 70.4283 43.3751 70.7032Z" fill="url(#paint6_radial_563_985)"/>
<path opacity="0.3" d="M152.333 56.708H135.5V65.2913H152.333V56.708Z" fill="black"/>
<defs>
<radialGradient id="paint0_radial_563_985" cx="0" cy="0" r="1" gradientUnits="userSpaceOnUse" gradientTransform="translate(81.9951 -14.1043) scale(366.588 373.847)">
<stop stop-color="#26BC89"/>
<stop offset="0.551" stop-color="#26BC89"/>
</radialGradient>
<radialGradient id="paint1_radial_563_985" cx="0" cy="0" r="1" gradientUnits="userSpaceOnUse" gradientTransform="translate(81.9951 10.0524) scale(211.843 216.038)">
<stop stop-color="#757575"/>
<stop offset="0.22" stop-color="#323232"/>
<stop offset="0.441" stop-color="#121212"/>
<stop offset="0.551"/>
</radialGradient>
<radialGradient id="paint2_radial_563_985" cx="0" cy="0" r="1" gradientUnits="userSpaceOnUse" gradientTransform="translate(82.4454 49.7342) scale(179.734 183.293)">
<stop stop-color="white"/>
<stop offset="0.886" stop-color="#FFFAF1"/>
</radialGradient>
<radialGradient id="paint3_radial_563_985" cx="0" cy="0" r="1" gradientUnits="userSpaceOnUse" gradientTransform="translate(3360.6 214.964) scale(5832.93 5948.44)">
<stop stop-color="white"/>
<stop offset="0.886" stop-color="#FFFAF1"/>
</radialGradient>
<radialGradient id="paint4_radial_563_985" cx="0" cy="0" r="1" gradientUnits="userSpaceOnUse" gradientTransform="translate(3360.6 232.13) scale(5832.93 5948.44)">
<stop stop-color="white"/>
<stop offset="0.886" stop-color="#FFFAF1"/>
</radialGradient>
<radialGradient id="paint5_radial_563_985" cx="0" cy="0" r="1" gradientUnits="userSpaceOnUse" gradientTransform="translate(822.195 249.297) scale(989.805 1009.41)">
<stop stop-color="white"/>
<stop offset="0.886" stop-color="#FFFAF1"/>
</radialGradient>
<radialGradient id="paint6_radial_563_985" cx="0" cy="0" r="1" gradientUnits="userSpaceOnUse" gradientTransform="translate(1721.23 449.722) scale(654.192 667.146)">
<stop stop-color="#757575"/>
<stop offset="0.22" stop-color="#323232"/>
<stop offset="0.441" stop-color="#121212"/>
<stop offset="0.551"/>
</radialGradient>
</defs>
</svg>
