<svg width="128" height="128" viewBox="0 0 128 128" fill="none" xmlns="http://www.w3.org/2000/svg">
<path d="M112 47L64 30L16 47V107L64 124L112 107V47Z" fill="white"/>
<path d="M112 47L64 30L16 47V107L64 124L112 107V47Z" fill="white"/>
<path d="M16 47L4 67L52 84L64 64L16 47ZM112 47L64 30L112 47Z" fill="white"/>
<path d="M64.0001 66.9999C62.8001 66.9999 61.6001 66.1999 61.2001 64.9999C60.6001 63.3999 61.5001 61.6999 63.0001 61.1999L111 44.1999C112.6 43.5999 114.3 44.4999 114.8 45.9999C115.4 47.5999 114.5 49.2999 113 49.7999L65.0001 66.7999C64.7001 66.8999 64.3001 66.9999 64.0001 66.9999Z" fill="#8FCB9B"/>
<path d="M64 127C63.4 127 62.8 126.8 62.3 126.5C61.5 125.9 61 125 61 124V95.7C61 94 62.3 92.7 64 92.7C65.7 92.7 67 94 67 95.7V119.8L109 104.9V47C109 45.3 110.3 44 112 44C113.7 44 115 45.3 115 47V107C115 108.3 114.2 109.4 113 109.8L65 126.8C64.7 126.9 64.3 127 64 127Z" fill="#8FCB9B"/>
<path d="M112 47L64 30L112 47ZM112 47L64 30L112 47ZM64 64L16 47L64 64Z" fill="white"/>
<path d="M13 107C13 108.3 13.8 109.4 15 109.8L63 126.8C63.3 126.9 63.7 127 64 127C65.2 127 66.4 126.2 66.8 125C67.4 123.4 66.5 121.7 65 121.2L19 104.9V72.3L13 70.2V107Z" fill="#8FCB9B"/>
<path d="M124 67L76 84L64 64L112 47L124 67Z" fill="white"/>
<path d="M126.6 65.5L114.6 45.5L114.5 45.4C114.5 45.3 114.4 45.3 114.4 45.2C114.3 45.1 114.3 45 114.2 45C114.1 44.9 114.1 44.9 114 44.7999C113.9 44.6999 113.8 44.6999 113.7 44.5999C113.6 44.5999 113.6 44.5 113.5 44.5C113.3 44.4 113.2 44.2999 113 44.2999L65 27.2999C64.8 27.1999 64.6 27.2 64.4 27.2H64.3C64.1 27.2 64 27.2 63.8 27.2C63.7 27.2 63.7 27.2 63.6 27.2C63.4 27.2 63.2 27.2999 63 27.2999L15 44.2999C15 44.2999 14.9 44.3 14.9 44.4C14.8 44.5 14.6 44.4999 14.5 44.5999C14.3 44.6999 14.1 44.8999 13.9 45.0999L13.8 45.2C13.7 45.3 13.7 45.4 13.6 45.4C13.6 45.4 13.6 45.4 13.5 45.5L1.5 65.5C1 66.2 0.9 67.2 1.2 68C1.5 68.7999 2.2 69.5 3 69.8L51 86.8C51.3 86.9 51.7 87 52 87C53 87 54 86.5 54.6 85.5L64 69.8L73.4 85.5C74 86.5 75 87 76 87C76.3 87 76.7 86.9 77 86.8L125 69.8C125.8 69.5 126.5 68.7999 126.8 68C127.1 67.2 127 66.2 126.6 65.5ZM67 34.2L103 47L67 59.7999V34.2ZM50.7 80.4L8.5 65.4L17.4 50.5999L59.6 65.5999L50.7 80.4ZM77.3 80.4L68.4 65.5999L110.6 50.5999L119.5 65.4L77.3 80.4Z" fill="#8FCB9B"/>
</svg>
