<svg width="150" height="155" viewBox="0 0 150 155" fill="none" xmlns="http://www.w3.org/2000/svg">
<path d="M131.25 125.938H18.75V132.396C18.75 135.964 21.5469 138.854 25 138.854H125C128.453 138.854 131.25 135.964 131.25 132.396V125.938Z" fill="url(#paint0_linear_563_716)"/>
<path d="M131.25 125.938H18.75V64.5833L75 9.6875L131.25 64.5833V125.938Z" fill="url(#paint1_linear_563_716)"/>
<path d="M40.625 80.729H71.875C73.6 80.729 75 82.1757 75 83.9582V138.854H37.5V83.9582C37.5 82.1757 38.9 80.729 40.625 80.729Z" fill="#DE490D"/>
<path opacity="0.05" d="M75 12.9165C73.5187 12.9165 72.0375 13.459 70.8563 14.5408L54.1094 30.0763L18.75 64.5832V81.9884L75 30.4444L131.25 81.9884V64.5832L95.8906 30.0763L79.1437 14.5408C77.9625 13.459 76.4813 12.9165 75 12.9165Z" fill="black"/>
<path opacity="0.07" d="M75 9.6875C73.5187 9.6875 72.0375 10.2268 70.8563 11.3021L54.1094 26.7504L18.75 61.0603V78.3654L75 27.1153L131.25 78.3654V61.0603L95.8906 26.7504L79.1437 11.3021C77.9625 10.2268 76.4813 9.6875 75 9.6875Z" fill="black"/>
<path d="M139.047 62.9915L79.1439 8.08277C77.9626 7.001 76.4814 6.4585 75.0001 6.4585C73.5189 6.4585 72.0376 7.001 70.8564 8.08277L10.9532 62.9915C9.64074 64.1992 9.55012 66.2853 10.7532 67.6092L15.8657 73.2441C17.0189 74.5164 18.9407 74.6133 20.2095 73.4605L75.0001 23.9864L129.791 73.4637C131.056 74.6133 132.981 74.5196 134.134 73.2474L139.247 67.6125C140.45 66.2853 140.359 64.1992 139.047 62.9915Z" fill="url(#paint2_linear_563_716)"/>
<path d="M90.625 80.729H109.375C111.1 80.729 112.5 82.1757 112.5 83.9582V103.333C112.5 105.116 111.1 106.562 109.375 106.562H90.625C88.9 106.562 87.5 105.116 87.5 103.333V83.9582C87.5 82.1757 88.9 80.729 90.625 80.729Z" fill="url(#paint3_linear_563_716)"/>
<defs>
<linearGradient id="paint0_linear_563_716" x1="18.75" y1="132.396" x2="131.25" y2="132.396" gradientUnits="userSpaceOnUse">
<stop stop-color="#C8D3DE"/>
<stop offset="1" stop-color="#C8D3DE"/>
</linearGradient>
<linearGradient id="paint1_linear_563_716" x1="44.0469" y1="33.3831" x2="100.927" y2="139.874" gradientUnits="userSpaceOnUse">
<stop stop-color="#FCFCFC"/>
<stop offset="0.495" stop-color="#F4F4F4"/>
<stop offset="0.946" stop-color="#E8E8E8"/>
<stop offset="1" stop-color="#E8E8E8"/>
</linearGradient>
<linearGradient id="paint2_linear_563_716" x1="75.0001" y1="5.43808" x2="75.0001" y2="76.5185" gradientUnits="userSpaceOnUse">
<stop stop-color="#D43A02"/>
<stop offset="1" stop-color="#B9360C"/>
</linearGradient>
<linearGradient id="paint3_linear_563_716" x1="87.6562" y1="80.8905" x2="112.069" y2="104.515" gradientUnits="userSpaceOnUse">
<stop stop-color="#33BEF0"/>
<stop offset="1" stop-color="#0A85D9"/>
</linearGradient>
</defs>
</svg>
