<svg width="30" height="30" viewBox="0 0 30 30" fill="none" xmlns="http://www.w3.org/2000/svg">
<path d="M6.25 26.25C5.5625 26.25 4.97375 26.0054 4.48375 25.5162C3.99458 25.0262 3.75 24.4375 3.75 23.75V6.25C3.75 5.5625 3.99458 4.97375 4.48375 4.48375C4.97375 3.99458 5.5625 3.75 6.25 3.75H23.75C24.4375 3.75 25.0262 3.99458 25.5162 4.48375C26.0054 4.97375 26.25 5.5625 26.25 6.25V23.75C26.25 24.4375 26.0054 25.0262 25.5162 25.5162C25.0262 26.0054 24.4375 26.25 23.75 26.25H6.25ZM6.25 23.75H23.75V6.25H6.25V23.75ZM7.5 21.25H22.5L17.8125 15L14.0625 20L11.25 16.25L7.5 21.25Z" fill="#222222"/>
</svg>
