<svg width="30" height="30" viewBox="0 0 30 30" fill="none" xmlns="http://www.w3.org/2000/svg">
<path d="M18.2288 14.7036H16.3538V7.20361H17.2913C18.2849 7.2067 19.2369 7.60278 19.9395 8.30538C20.6421 9.00797 21.0382 9.96 21.0413 10.9536C21.0413 11.2023 21.14 11.4407 21.3158 11.6165C21.4917 11.7923 21.7301 11.8911 21.9788 11.8911C22.2274 11.8911 22.4659 11.7923 22.6417 11.6165C22.8175 11.4407 22.9163 11.2023 22.9163 10.9536C22.9163 9.46177 22.3236 8.03103 21.2687 6.97614C20.2138 5.92125 18.7831 5.32861 17.2913 5.32861H16.3538V3.45361C16.3538 3.20497 16.255 2.96652 16.0792 2.7907C15.9034 2.61489 15.6649 2.51611 15.4163 2.51611C15.1676 2.51611 14.9292 2.61489 14.7533 2.7907C14.5775 2.96652 14.4788 3.20497 14.4788 3.45361V5.32861H13.0725C11.5807 5.32861 10.1499 5.92125 9.09503 6.97614C8.04014 8.03103 7.44751 9.46177 7.44751 10.9536C7.44751 12.4455 8.04014 13.8762 9.09503 14.9311C10.1499 15.986 11.5807 16.5786 13.0725 16.5786H14.4788V24.0786H12.6038C11.6101 24.0755 10.6581 23.6794 9.95552 22.9768C9.25293 22.2743 8.85685 21.3222 8.85376 20.3286C8.85376 20.08 8.75499 19.8415 8.57917 19.6657C8.40336 19.4899 8.1649 19.3911 7.91626 19.3911C7.66762 19.3911 7.42916 19.4899 7.25335 19.6657C7.07753 19.8415 6.97876 20.08 6.97876 20.3286C6.97876 21.8205 7.57139 23.2512 8.62628 24.3061C9.68118 25.361 11.1119 25.9536 12.6038 25.9536H14.4788V27.8286C14.4788 28.0773 14.5775 28.3157 14.7533 28.4915C14.9292 28.6673 15.1676 28.7661 15.4163 28.7661C15.6649 28.7661 15.9034 28.6673 16.0792 28.4915C16.255 28.3157 16.3538 28.0773 16.3538 27.8286V25.9536H18.2288C19.7206 25.9536 21.1513 25.361 22.2062 24.3061C23.2611 23.2512 23.8538 21.8205 23.8538 20.3286C23.8538 18.8368 23.2611 17.406 22.2062 16.3511C21.1513 15.2962 19.7206 14.7036 18.2288 14.7036ZM14.4788 14.7036H13.0725C12.0779 14.7036 11.1241 14.3085 10.4209 13.6053C9.7176 12.902 9.32251 11.9482 9.32251 10.9536C9.32251 9.95905 9.7176 9.00522 10.4209 8.30196C11.1241 7.5987 12.0779 7.20361 13.0725 7.20361H14.4788V14.7036ZM18.2288 24.0786H16.3538V16.5786H18.2288C19.2233 16.5786 20.1771 16.9737 20.8804 17.677C21.5837 18.3802 21.9788 19.3341 21.9788 20.3286C21.9788 21.3232 21.5837 22.277 20.8804 22.9803C20.1771 23.6835 19.2233 24.0786 18.2288 24.0786Z" fill="#222222"/>
</svg>
