<svg width="30" height="30" viewBox="0 0 30 30" fill="none" xmlns="http://www.w3.org/2000/svg">
<path d="M29.76 21.7586L24.5391 26.7743H24.5261C24.513 26.7994 24.4869 26.8119 24.4608 26.837L24.4217 26.8621L24.3694 26.8997L24.3303 26.9248L24.2911 26.9498H24.2389L24.1998 26.9749H24.1476L24.0954 27H23.4949L23.4427 26.9749H23.3905L23.3514 26.9498H23.2992L23.26 26.9248L23.2209 26.8997L23.1686 26.8621L23.1295 26.837L23.0642 26.7743H23.0512L17.8303 21.7586C17.6638 21.5637 17.5787 21.3163 17.5916 21.0644C17.6045 20.8126 17.7144 20.5744 17.9 20.3961C18.0855 20.2178 18.3335 20.1122 18.5957 20.0998C18.8578 20.0874 19.1154 20.1692 19.3182 20.3292L22.751 23.6395V14.0219C22.751 13.7559 22.861 13.5007 23.0568 13.3126C23.2526 13.1245 23.5182 13.0188 23.7952 13.0188C24.0721 13.0188 24.3377 13.1245 24.5335 13.3126C24.7293 13.5007 24.8393 13.7559 24.8393 14.0219V23.6395L28.2721 20.3292C28.4749 20.1692 28.7325 20.0874 28.9946 20.0998C29.2568 20.1122 29.5048 20.2178 29.6903 20.3961C29.8759 20.5744 29.9859 20.8126 29.9987 21.0644C30.0116 21.3163 29.9265 21.5637 29.76 21.7586ZM15.4418 15.0251H6.04418C5.76724 15.0251 5.50165 15.1308 5.30583 15.3189C5.11001 15.507 5 15.7622 5 16.0282C5 16.2943 5.11001 16.5494 5.30583 16.7375C5.50165 16.9257 5.76724 17.0313 6.04418 17.0313H15.4418C15.7187 17.0313 15.9843 16.9257 16.1801 16.7375C16.3759 16.5494 16.4859 16.2943 16.4859 16.0282C16.4859 15.7622 16.3759 15.507 16.1801 15.3189C15.9843 15.1308 15.7187 15.0251 15.4418 15.0251ZM6.04418 9.00627H23.7952C24.0721 9.00627 24.3377 8.90058 24.5335 8.71246C24.7293 8.52433 24.8393 8.26918 24.8393 8.00313C24.8393 7.73709 24.7293 7.48194 24.5335 7.29381C24.3377 7.10569 24.0721 7 23.7952 7H6.04418C5.76724 7 5.50165 7.10569 5.30583 7.29381C5.11001 7.48194 5 7.73709 5 8.00313C5 8.26918 5.11001 8.52433 5.30583 8.71246C5.50165 8.90058 5.76724 9.00627 6.04418 9.00627ZM13.3534 23.0502H6.04418C5.76724 23.0502 5.50165 23.1558 5.30583 23.344C5.11001 23.5321 5 23.7872 5 24.0533C5 24.3193 5.11001 24.5745 5.30583 24.7626C5.50165 24.9507 5.76724 25.0564 6.04418 25.0564H13.3534C13.6303 25.0564 13.8959 24.9507 14.0917 24.7626C14.2876 24.5745 14.3976 24.3193 14.3976 24.0533C14.3976 23.7872 14.2876 23.5321 14.0917 23.344C13.8959 23.1558 13.6303 23.0502 13.3534 23.0502Z" fill="#588139"/>
</svg>
