<svg width="30" height="30" viewBox="0 0 30 30" fill="none" xmlns="http://www.w3.org/2000/svg">
<g clip-path="url(#clip0_526_1406)">
<path d="M14.9998 1.6665C12.3628 1.6665 9.7849 2.44849 7.59224 3.91358C5.39958 5.37866 3.69062 7.46104 2.68145 9.89739C1.67228 12.3337 1.40824 15.0146 1.92271 17.601C2.43718 20.1875 3.70705 22.5632 5.57175 24.4279C7.43645 26.2926 9.81223 27.5625 12.3986 28.077C14.9851 28.5914 17.6659 28.3274 20.1023 27.3182C22.5386 26.3091 24.621 24.6001 26.0861 22.4074C27.5512 20.2148 28.3332 17.6369 28.3332 14.9998C28.3332 11.4636 26.9284 8.07223 24.4279 5.57175C21.9275 3.07126 18.5361 1.6665 14.9998 1.6665ZM23.7082 10.5248L12.7582 21.4665L6.29151 14.9998C6.0705 14.7788 5.94633 14.4791 5.94633 14.1665C5.94633 13.8539 6.0705 13.5542 6.29151 13.3332C6.51252 13.1122 6.81228 12.988 7.12484 12.988C7.4374 12.988 7.73716 13.1122 7.95818 13.3332L12.7748 18.1498L22.0582 8.87484C22.1676 8.7654 22.2975 8.67859 22.4405 8.61937C22.5835 8.56014 22.7367 8.52966 22.8915 8.52966C23.0463 8.52966 23.1995 8.56014 23.3425 8.61937C23.4855 8.67859 23.6154 8.7654 23.7248 8.87484C23.8343 8.98427 23.9211 9.11419 23.9803 9.25717C24.0395 9.40016 24.07 9.55341 24.07 9.70817C24.07 9.86293 24.0395 10.0162 23.9803 10.1592C23.9211 10.3022 23.8343 10.4321 23.7248 10.5415L23.7082 10.5248Z" fill="#4ECB71"/>
</g>
<defs>
<clipPath id="clip0_526_1406">
<rect width="30" height="30" fill="white"/>
</clipPath>
</defs>
</svg>
