<svg width="30" height="30" viewBox="0 0 30 30" fill="none" xmlns="http://www.w3.org/2000/svg">
<path d="M3.40621 26.25C3.17704 26.25 2.96871 26.1925 2.78121 26.0775C2.59371 25.9625 2.44788 25.8117 2.34371 25.625C2.23954 25.4375 2.18204 25.2342 2.17121 25.015C2.16038 24.7958 2.21788 24.5825 2.34371 24.375L13.9062 4.375C14.0312 4.16667 14.1929 4.01042 14.3912 3.90625C14.5895 3.80208 14.7925 3.75 15 3.75C15.2083 3.75 15.4116 3.80208 15.61 3.90625C15.8083 4.01042 15.9695 4.16667 16.0937 4.375L27.6562 24.375C27.7812 24.5833 27.8387 24.7971 27.8287 25.0163C27.8187 25.2354 27.7612 25.4383 27.6562 25.625C27.552 25.8125 27.4062 25.9638 27.2187 26.0788C27.0312 26.1938 26.8229 26.2508 26.5937 26.25H3.40621ZM15 22.5C15.3541 22.5 15.6512 22.38 15.8912 22.14C16.1312 21.9 16.2508 21.6033 16.25 21.25C16.25 20.8958 16.13 20.5988 15.89 20.3588C15.65 20.1188 15.3533 19.9992 15 20C14.6458 20 14.3487 20.12 14.1087 20.36C13.8687 20.6 13.7491 20.8967 13.75 21.25C13.75 21.6042 13.87 21.9012 14.11 22.1412C14.35 22.3812 14.6466 22.5008 15 22.5ZM15 18.75C15.3541 18.75 15.6512 18.63 15.8912 18.39C16.1312 18.15 16.2508 17.8533 16.25 17.5V13.75C16.25 13.3958 16.13 13.0987 15.89 12.8587C15.65 12.6187 15.3533 12.4992 15 12.5C14.6458 12.5 14.3487 12.62 14.1087 12.86C13.8687 13.1 13.7491 13.3967 13.75 13.75V17.5C13.75 17.8542 13.87 18.1513 14.11 18.3913C14.35 18.6313 14.6466 18.7508 15 18.75Z" fill="#FFD233"/>
</svg>
