<svg width="2416" height="805" viewBox="0 0 2416 805" fill="none" xmlns="http://www.w3.org/2000/svg">
<rect x="4" width="2408" height="805" fill="#F1F5DB"/>
<path fill-rule="evenodd" clip-rule="evenodd" d="M4 595.761C4 595.761 1199.29 490 1468.02 504.544C1736.75 519.088 1988.68 428.5 2222.89 456C2457.09 483.5 2407.64 446 2407.64 446V635.172L1177.91 736.162L575.144 747L253.294 714.486L4 671.627V595.761Z" fill="#A7CBE2"/>
<rect x="508.017" y="383.572" width="19.0759" height="77.6323" fill="#93642D"/>
<rect x="508.068" y="354.869" width="19.0759" height="77.6323" fill="#714D22"/>
<path d="M517.35 341.228L571.631 422.389H463.07L517.35 341.228Z" fill="#83C082"/>
<path d="M517.401 310.645L563.422 379.455H471.38L517.401 310.645Z" fill="#66A865"/>
<path d="M535.091 336.851H499.721L494.502 344.359H540.309L535.091 336.851Z" fill="#458244"/>
<path d="M542.943 379.396H491.827L486.965 386.404H547.847L542.943 379.396Z" fill="#458244"/>
<path d="M518.006 282.415L554.587 337.111H481.426L518.006 282.415Z" fill="#83C082"/>
<rect x="593.481" y="386.827" width="19.0759" height="77.6323" fill="#93642D"/>
<rect x="593.481" y="380.148" width="18.5546" height="56.061" fill="#714D22"/>
<path d="M603.165 344.482L657.446 425.644H548.885L603.165 344.482Z" fill="#66A865"/>
<rect x="693.563" y="393.385" width="19.0759" height="77.6323" fill="#93642D"/>
<rect x="693.614" y="364.682" width="19.0759" height="77.6323" fill="#714D22"/>
<path d="M702.896 351.039L757.177 432.2H648.616L702.896 351.039Z" fill="#66A865"/>
<path d="M728.489 389.209H677.374L672.511 396.217H733.393L728.489 389.209Z" fill="#458244"/>
<path d="M702.947 320.457L748.968 389.268H656.926L702.947 320.457Z" fill="#83C082"/>
<g filter="url(#filter0_dd_516_1593)">
<path fill-rule="evenodd" clip-rule="evenodd" d="M4 447.73H205.279C404.676 448.564 792.138 430.456 1192.81 429.621C1593.49 428.648 1969.94 397.861 2169.34 396.052L2411.82 389V494.89C2411.82 494.89 2430.81 534 2077.92 506C1725.03 478 1477.85 552 1455.28 558C1432.7 564 1369.69 582 1000.05 582C630.41 582 805.046 540.205 674.723 546.087C494.612 554.216 278.13 579.271 278.13 604.287C278.13 629.302 4 634.39 4 604.287C4 574.184 4 447.73 4 447.73Z" fill="#6E856C"/>
</g>
<path fill-rule="evenodd" clip-rule="evenodd" d="M4 651.15L103.706 661.567C205.294 671.984 404.706 692.016 606 697.625C807.294 702.433 1006.71 692.016 1208 666.375C1409.29 640.733 1608.71 599.866 1810 579.033C2011.29 559 2210.71 559 2312.29 559H2412V805H2312.29C2210.71 805 2011.29 805 1810 805C1608.71 805 1409.29 805 1208 805C1006.71 805 807.294 805 606 805C404.706 805 205.294 805 103.706 805H4V651.15Z" fill="#6E856C"/>
<rect x="1682.76" y="559.564" width="19.0759" height="77.6323" fill="#93642D"/>
<rect x="1682.81" y="530.861" width="19.0759" height="77.6323" fill="#714D22"/>
<path d="M1692.09 517.219L1746.37 598.38H1637.81L1692.09 517.219Z" fill="#66A865"/>
<path d="M1717.68 555.389H1666.57L1661.7 562.396H1722.59L1717.68 555.389Z" fill="#458244"/>
<path d="M1692.14 486.637L1738.16 555.447H1646.12L1692.14 486.637Z" fill="#83C082"/>
<path fill-rule="evenodd" clip-rule="evenodd" d="M1615.41 325.31C1615.41 316.249 1622.76 308.903 1631.82 308.903H1635.71C1644.77 308.903 1652.11 316.249 1652.11 325.31C1652.11 325.988 1652.07 326.657 1651.99 327.315C1659.53 328.795 1665.22 335.44 1665.22 343.413C1665.22 352.474 1657.88 359.82 1648.81 359.82H1644.93C1640.29 359.82 1636.09 357.892 1633.11 354.792C1630.12 357.892 1625.93 359.82 1621.29 359.82H1617.4C1608.34 359.82 1601 352.474 1601 343.413C1601 334.992 1607.34 328.052 1615.51 327.115C1615.45 326.522 1615.41 325.92 1615.41 325.31Z" fill="#66A865"/>
<path fill-rule="evenodd" clip-rule="evenodd" d="M1657.07 372.647C1650.69 379.28 1639.35 380.406 1631.86 375.036C1624.38 369.667 1623.59 359.835 1629.98 353.203C1630.54 352.619 1631.15 352.077 1631.78 351.579C1627.52 346.052 1627.9 338.379 1633.18 332.895C1639.57 326.262 1650.91 325.136 1658.39 330.506C1662.43 333.409 1664.52 337.618 1664.58 341.92C1669.49 341.181 1674.66 342.185 1678.71 345.089C1686.19 350.458 1686.98 360.29 1680.59 366.922C1675.02 372.705 1665.68 374.302 1658.43 371.058C1658.02 371.604 1657.57 372.135 1657.07 372.647Z" fill="#66A865"/>
<path fill-rule="evenodd" clip-rule="evenodd" d="M1652.27 320.212C1652.27 311.05 1659.7 303.623 1668.86 303.623H1672.79C1681.95 303.623 1689.38 311.05 1689.38 320.212C1689.38 320.898 1689.34 321.575 1689.26 322.239C1696.88 323.736 1702.63 330.455 1702.63 338.517C1702.63 347.678 1695.21 355.105 1686.05 355.105H1682.12C1677.42 355.105 1673.18 353.156 1670.17 350.022C1667.15 353.156 1662.91 355.105 1658.21 355.105H1654.28C1645.12 355.105 1637.7 347.678 1637.7 338.517C1637.7 330.002 1644.11 322.985 1652.37 322.037C1652.31 321.438 1652.27 320.829 1652.27 320.212Z" fill="#66A865"/>
<path fill-rule="evenodd" clip-rule="evenodd" d="M1651.75 312.777C1651.75 303.615 1659.18 296.188 1668.34 296.188H1672.27C1681.44 296.188 1688.86 303.615 1688.86 312.777C1688.86 313.463 1688.82 314.14 1688.74 314.805C1696.36 316.301 1702.11 323.02 1702.11 331.082C1702.11 340.244 1694.69 347.671 1685.53 347.671H1681.6C1676.9 347.671 1672.66 345.721 1669.65 342.588C1666.63 345.721 1662.39 347.671 1657.7 347.671H1653.77C1644.6 347.671 1637.18 340.244 1637.18 331.082C1637.18 322.567 1643.59 315.55 1651.85 314.602C1651.79 314.003 1651.75 313.394 1651.75 312.777Z" fill="#66A865"/>
<path fill-rule="evenodd" clip-rule="evenodd" d="M1621.69 307.646C1621.69 300.129 1627.79 294.035 1635.3 294.035H1638.53C1646.04 294.035 1652.14 300.129 1652.14 307.646C1652.14 308.209 1652.1 308.764 1652.04 309.31C1658.29 310.537 1663.01 316.05 1663.01 322.666C1663.01 330.183 1656.92 336.277 1649.4 336.277H1646.18C1642.32 336.277 1638.85 334.677 1636.37 332.106C1633.89 334.677 1630.42 336.277 1626.57 336.277H1623.34C1615.82 336.277 1609.73 330.183 1609.73 322.666C1609.73 315.679 1614.99 309.922 1621.77 309.144C1621.72 308.652 1621.69 308.152 1621.69 307.646Z" fill="#66A865"/>
<path fill-rule="evenodd" clip-rule="evenodd" d="M1666.57 313.582C1672.39 318.901 1672.16 327.254 1666.05 332.239C1659.94 337.224 1650.26 336.953 1644.44 331.633L1643.87 331.11C1643.45 330.724 1643.05 330.322 1642.7 329.906C1636.81 332.504 1629.39 331.551 1624.59 327.164L1624.01 326.64C1618.19 321.321 1618.43 312.968 1624.54 307.983C1627.84 305.287 1632.19 304.128 1636.41 304.474C1636.24 300.821 1637.83 297.14 1641.14 294.445C1647.25 289.46 1656.92 289.731 1662.74 295.05L1663.32 295.574C1668.38 300.202 1668.86 307.126 1664.88 312.131C1665.26 312.42 1665.64 312.729 1666 313.058L1666.57 313.582Z" fill="#66A865"/>
<path fill-rule="evenodd" clip-rule="evenodd" d="M1636.44 328.414C1636.44 321.169 1642.31 315.296 1649.56 315.296H1652.67C1659.91 315.296 1665.78 321.169 1665.78 328.414C1665.78 328.957 1665.75 329.492 1665.69 330.018C1671.72 331.201 1676.26 336.514 1676.26 342.89C1676.26 350.135 1670.39 356.008 1663.15 356.008H1660.04C1656.33 356.008 1652.97 354.466 1650.59 351.988C1648.2 354.466 1644.85 356.008 1641.14 356.008H1638.03C1630.78 356.008 1624.91 350.135 1624.91 342.89C1624.91 336.156 1629.98 330.607 1636.52 329.858C1636.47 329.384 1636.44 328.902 1636.44 328.414Z" fill="#66A865"/>
<path fill-rule="evenodd" clip-rule="evenodd" d="M1602.34 335.707C1605.1 340.884 1610.55 344.407 1616.83 344.407H1620.71C1622.5 344.407 1624.22 344.121 1625.83 343.593C1623.9 349.319 1625.79 355.677 1631.29 359.624C1638.77 364.994 1650.11 363.868 1656.5 357.235C1656.99 356.723 1657.44 356.192 1657.85 355.646C1665.11 358.89 1674.44 357.293 1680.01 351.51C1683.32 348.075 1684.7 343.781 1684.23 339.693H1685.47C1692.87 339.693 1699.14 334.841 1701.28 328.144C1701.45 329.098 1701.54 330.08 1701.54 331.084C1701.54 331.963 1701.47 332.826 1701.34 333.669C1701.81 335.202 1702.06 336.83 1702.06 338.517C1702.06 347.679 1694.63 355.106 1685.47 355.106H1684.23C1684.7 359.193 1683.32 363.487 1680.01 366.923C1674.44 372.706 1665.11 374.303 1657.85 371.058C1657.44 371.605 1656.99 372.136 1656.5 372.648C1650.11 379.281 1638.77 380.407 1631.29 375.037C1625.79 371.09 1623.9 364.732 1625.83 359.006C1624.22 359.534 1622.5 359.82 1620.71 359.82H1616.83C1607.76 359.82 1600.42 352.474 1600.42 343.413C1600.42 340.628 1601.11 338.005 1602.34 335.707Z" fill="#458244"/>
<path d="M1645.16 322.458H1658.59L1669.53 412.666H1634.05L1645.16 322.458Z" fill="#93642D"/>
<path d="M1645.07 322.458H1658.68L1664.45 371.011H1639.27L1645.07 322.458Z" fill="#714D22"/>
<path fill-rule="evenodd" clip-rule="evenodd" d="M1637.46 329.57C1637.46 322.325 1643.33 316.452 1650.58 316.452H1653.69C1660.93 316.452 1666.8 322.325 1666.8 329.57C1666.8 330.113 1666.77 330.648 1666.71 331.174C1672.74 332.357 1677.29 337.67 1677.29 344.046C1677.29 351.291 1671.41 357.164 1664.17 357.164H1661.06C1657.35 357.164 1654 355.623 1651.61 353.145C1649.22 355.623 1645.87 357.164 1642.16 357.164H1639.05C1631.81 357.164 1625.93 351.291 1625.93 344.046C1625.93 337.312 1631.01 331.764 1637.54 331.014C1637.49 330.54 1637.46 330.058 1637.46 329.57Z" fill="#66A865"/>
<path fill-rule="evenodd" clip-rule="evenodd" d="M1646.06 312.329C1650.98 315.222 1652.11 321.201 1648.57 325.683C1645.03 330.165 1638.18 331.453 1633.26 328.559L1631.61 327.588C1631.42 327.481 1631.24 327.369 1631.07 327.253C1627.33 329.972 1621.98 330.417 1617.94 328.04L1616.29 327.069C1611.37 324.176 1610.24 318.197 1613.78 313.715C1615.69 311.291 1618.58 309.802 1621.6 309.402C1620.92 306.828 1621.47 303.966 1623.38 301.542C1626.92 297.06 1633.78 295.772 1638.7 298.665L1640.35 299.636C1644.62 302.146 1646.03 306.977 1644.02 311.139C1644.15 311.209 1644.28 311.282 1644.41 311.358L1646.06 312.329Z" fill="#83C082"/>
<rect x="1549.39" y="336.549" width="19.0759" height="77.6323" fill="#93642D"/>
<rect x="1549.45" y="307.846" width="19.0759" height="77.6323" fill="#714D22"/>
<path d="M1600.2 339.242C1600.2 359.552 1581.13 376.017 1557.6 376.017C1534.07 376.017 1515 359.552 1515 339.242C1515 318.931 1534.07 277.949 1557.6 277.949C1581.13 277.949 1600.2 318.931 1600.2 339.242Z" fill="#66A865"/>
<path fill-rule="evenodd" clip-rule="evenodd" d="M1598.91 330.62C1594.88 347.317 1577.74 359.862 1557.21 359.862C1536.67 359.862 1519.53 347.317 1515.5 330.62C1514.91 333.743 1514.6 336.659 1514.6 339.241C1514.6 359.552 1533.68 376.017 1557.21 376.017C1580.73 376.017 1599.81 359.552 1599.81 339.241C1599.81 336.659 1599.5 333.743 1598.91 330.62Z" fill="#458244"/>
<path d="M1593.23 292.155C1593.23 308.652 1577.44 322.025 1557.95 322.025C1538.47 322.025 1522.67 308.652 1522.67 292.155C1522.67 275.659 1538.47 242.372 1557.95 242.372C1577.44 242.372 1593.23 275.659 1593.23 292.155Z" fill="#83C082"/>
<rect x="1463.22" y="355.166" width="19.0759" height="77.6323" fill="#93642D"/>
<rect x="1463.27" y="341.479" width="19.0759" height="77.6323" fill="#714D22"/>
<path d="M1515.15 373.741C1515.15 394.051 1496.08 410.516 1472.55 410.516C1449.02 410.516 1429.95 394.051 1429.95 373.741C1429.95 353.43 1449.02 312.448 1472.55 312.448C1496.08 312.448 1515.15 353.43 1515.15 373.741Z" fill="#66A865"/>
<path fill-rule="evenodd" clip-rule="evenodd" d="M1514.12 364.4C1510.53 381.58 1493.13 394.613 1472.19 394.613C1452.04 394.613 1435.16 382.535 1430.73 366.308C1430.25 369.079 1430 371.673 1430 373.996C1430 394.306 1449.07 410.771 1472.6 410.771C1496.13 410.771 1515.2 394.306 1515.2 373.996C1515.2 371.147 1514.83 367.892 1514.12 364.4Z" fill="#458244"/>
<path fill-rule="evenodd" clip-rule="evenodd" d="M1826.5 497.775C1826.5 486.15 1835.92 476.726 1847.55 476.726H1852.53C1864.16 476.726 1873.58 486.15 1873.58 497.775C1873.58 498.646 1873.53 499.505 1873.43 500.348C1883.1 502.246 1890.4 510.772 1890.4 521.003C1890.4 532.628 1880.98 542.052 1869.35 542.052H1864.36C1858.41 542.052 1853.03 539.578 1849.2 535.602C1845.37 539.578 1839.99 542.052 1834.04 542.052H1829.05C1817.42 542.052 1808 532.628 1808 521.003C1808 510.198 1816.14 501.294 1826.62 500.091C1826.54 499.331 1826.5 498.558 1826.5 497.775Z" fill="#66A865"/>
<path fill-rule="evenodd" clip-rule="evenodd" d="M1879.95 558.511C1871.75 567.021 1857.2 568.465 1847.6 561.576C1838 554.687 1836.99 542.073 1845.19 533.563C1845.91 532.814 1846.68 532.119 1847.49 531.48C1842.03 524.388 1842.51 514.544 1849.29 507.507C1857.48 498.997 1872.04 497.552 1881.63 504.442C1886.82 508.167 1889.5 513.567 1889.57 519.087C1895.87 518.138 1902.51 519.427 1907.7 523.152C1917.3 530.041 1918.31 542.655 1910.12 551.165C1902.97 558.584 1891 560.633 1881.68 556.471C1881.16 557.172 1880.58 557.854 1879.95 558.511Z" fill="#66A865"/>
<path fill-rule="evenodd" clip-rule="evenodd" d="M1873.79 491.234C1873.79 479.479 1883.32 469.95 1895.07 469.95H1900.11C1911.87 469.95 1921.4 479.479 1921.4 491.234C1921.4 492.114 1921.35 492.982 1921.24 493.835C1931.02 495.755 1938.4 504.375 1938.4 514.719C1938.4 526.474 1928.87 536.003 1917.12 536.003H1912.08C1906.05 536.003 1900.62 533.501 1896.74 529.481C1892.87 533.501 1887.43 536.003 1881.41 536.003H1876.37C1864.61 536.003 1855.09 526.474 1855.09 514.719C1855.09 503.794 1863.32 494.792 1873.92 493.575C1873.83 492.806 1873.79 492.025 1873.79 491.234Z" fill="#66A865"/>
<path fill-rule="evenodd" clip-rule="evenodd" d="M1873.12 481.696C1873.12 469.941 1882.65 460.412 1894.41 460.412H1899.45C1911.2 460.412 1920.73 469.941 1920.73 481.696C1920.73 482.576 1920.68 483.444 1920.57 484.297C1930.36 486.217 1937.74 494.837 1937.74 505.181C1937.74 516.936 1928.21 526.465 1916.45 526.465H1911.41C1905.39 526.465 1899.95 523.963 1896.08 519.943C1892.21 523.963 1886.77 526.465 1880.75 526.465H1875.7C1863.95 526.465 1854.42 516.936 1854.42 505.181C1854.42 494.256 1862.65 485.254 1873.25 484.037C1873.17 483.268 1873.12 482.487 1873.12 481.696Z" fill="#66A865"/>
<path fill-rule="evenodd" clip-rule="evenodd" d="M1834.55 475.112C1834.55 465.467 1842.37 457.648 1852.01 457.648H1856.15C1865.8 457.648 1873.61 465.467 1873.61 475.112C1873.61 475.834 1873.57 476.546 1873.49 477.246C1881.51 478.821 1887.57 485.894 1887.57 494.382C1887.57 504.027 1879.75 511.845 1870.1 511.845H1865.97C1861.02 511.845 1856.56 509.793 1853.39 506.494C1850.21 509.793 1845.75 511.845 1840.8 511.845H1836.67C1827.02 511.845 1819.2 504.027 1819.2 494.382C1819.2 485.418 1825.96 478.031 1834.66 477.033C1834.59 476.402 1834.55 475.761 1834.55 475.112Z" fill="#66A865"/>
<path fill-rule="evenodd" clip-rule="evenodd" d="M1892.13 482.728C1899.6 489.553 1899.3 500.27 1891.46 506.666C1883.62 513.062 1871.21 512.714 1863.74 505.889L1863 505.217C1862.46 504.722 1861.96 504.207 1861.5 503.674C1853.95 507.007 1844.43 505.785 1838.27 500.155L1837.53 499.483C1830.06 492.659 1830.36 481.942 1838.2 475.546C1842.44 472.087 1848.02 470.601 1853.43 471.044C1853.22 466.356 1855.26 461.633 1859.5 458.174C1867.34 451.779 1879.75 452.126 1887.22 458.951L1887.96 459.623C1894.46 465.561 1895.07 474.445 1889.96 480.867C1890.46 481.238 1890.94 481.635 1891.4 482.056L1892.13 482.728Z" fill="#66A865"/>
<path fill-rule="evenodd" clip-rule="evenodd" d="M1853.47 501.758C1853.47 492.462 1861.01 484.927 1870.3 484.927H1874.29C1883.59 484.927 1891.12 492.462 1891.12 501.758C1891.12 502.454 1891.08 503.14 1891 503.814C1898.73 505.333 1904.57 512.15 1904.57 520.33C1904.57 529.625 1897.03 537.161 1887.74 537.161H1883.75C1878.99 537.161 1874.69 535.183 1871.63 532.003C1868.56 535.183 1864.26 537.161 1859.5 537.161H1855.51C1846.22 537.161 1838.68 529.625 1838.68 520.33C1838.68 511.69 1845.19 504.571 1853.57 503.609C1853.51 503.001 1853.47 502.384 1853.47 501.758Z" fill="#66A865"/>
<path fill-rule="evenodd" clip-rule="evenodd" d="M1811.04 512.258C1814.65 518.66 1821.51 522.983 1829.39 522.983H1834.38C1836.67 522.983 1838.88 522.617 1840.94 521.939C1838.47 529.286 1840.89 537.443 1847.94 542.507C1857.54 549.396 1872.09 547.952 1880.29 539.442C1880.92 538.785 1881.5 538.103 1882.02 537.402C1891.33 541.564 1903.31 539.515 1910.46 532.096C1914.7 527.688 1916.48 522.179 1915.87 516.935H1917.46C1926.84 516.935 1934.8 510.865 1937.64 502.439C1937.92 503.835 1938.07 505.281 1938.07 506.762C1938.07 507.891 1937.99 508.999 1937.82 510.08C1938.42 512.048 1938.74 514.137 1938.74 516.301C1938.74 528.055 1929.21 537.584 1917.46 537.584H1915.87C1916.48 542.828 1914.7 548.337 1910.46 552.745C1903.31 560.165 1891.33 562.213 1882.02 558.051C1881.5 558.752 1880.92 559.434 1880.29 560.091C1872.09 568.601 1857.54 570.045 1847.94 563.156C1840.89 558.092 1838.47 549.935 1840.94 542.589C1838.88 543.266 1836.67 543.633 1834.38 543.633H1829.39C1817.76 543.633 1808.34 534.209 1808.34 522.583C1808.34 518.831 1809.32 515.309 1811.04 512.258Z" fill="#458244"/>
<path d="M1865.84 530.685H1879.26L1890.2 620.892H1854.73L1865.84 530.685Z" fill="#93642D"/>
<path d="M1865.74 530.685H1879.36L1885.12 579.237H1859.94L1865.74 530.685Z" fill="#714D22"/>
<path fill-rule="evenodd" clip-rule="evenodd" d="M1878.88 563.89C1899.88 550.841 1902.43 531.235 1900.96 522.677L1891.47 523.89C1892.56 530.23 1890.64 546.382 1873.28 557.172L1878.88 563.89Z" fill="#714D22"/>
<path fill-rule="evenodd" clip-rule="evenodd" d="M1855.27 501.724C1855.27 491.18 1863.81 482.633 1874.36 482.633H1878.88C1889.42 482.633 1897.97 491.18 1897.97 501.724C1897.97 502.514 1897.92 503.292 1897.83 504.057C1906.6 505.779 1913.22 513.511 1913.22 522.79C1913.22 533.333 1904.68 541.881 1894.13 541.881H1889.61C1884.21 541.881 1879.33 539.637 1875.86 536.031C1872.38 539.637 1867.51 541.881 1862.1 541.881H1857.58C1847.04 541.881 1838.49 533.333 1838.49 522.79C1838.49 512.99 1845.87 504.915 1855.38 503.824C1855.31 503.134 1855.27 502.434 1855.27 501.724Z" fill="#66A865"/>
<path fill-rule="evenodd" clip-rule="evenodd" d="M1872 481.442C1879.51 485.856 1881.22 494.979 1875.83 501.817C1870.43 508.656 1859.97 510.621 1852.46 506.206L1849.94 504.725C1849.66 504.56 1849.39 504.389 1849.13 504.212C1843.42 508.36 1835.26 509.039 1829.09 505.412L1826.57 503.931C1819.06 499.516 1817.35 490.394 1822.75 483.556C1825.66 479.857 1830.06 477.584 1834.68 476.975C1833.64 473.047 1834.48 468.681 1837.4 464.983C1842.79 458.144 1853.25 456.179 1860.76 460.594L1863.28 462.075C1869.8 465.904 1871.95 473.276 1868.88 479.627C1869.09 479.734 1869.28 479.845 1869.48 479.961L1872 481.442Z" fill="#83C082"/>
<rect x="535.849" y="635.296" width="19.0759" height="77.6323" fill="#93642D"/>
<rect x="535.9" y="606.593" width="19.0759" height="77.6323" fill="#714D22"/>
<path d="M586.656 637.99C586.656 658.3 567.583 674.765 544.056 674.765C520.528 674.765 501.455 658.3 501.455 637.99C501.455 617.679 520.528 576.697 544.055 576.697C567.583 576.697 586.656 617.679 586.656 637.99Z" fill="#83C082"/>
<path fill-rule="evenodd" clip-rule="evenodd" d="M585.366 629.368C581.339 646.065 564.196 658.61 543.66 658.61C523.123 658.61 505.98 646.065 501.953 629.368C501.367 632.491 501.059 635.407 501.059 637.989C501.059 658.3 520.132 674.765 543.66 674.765C567.187 674.765 586.26 658.3 586.26 637.989C586.26 635.407 585.952 632.491 585.366 629.368Z" fill="#458244"/>
<path d="M579.685 590.903C579.685 607.4 563.89 620.773 544.405 620.773C524.921 620.773 509.125 607.4 509.125 590.903C509.125 574.407 524.921 541.12 544.405 541.12C563.89 541.12 579.685 574.407 579.685 590.903Z" fill="#66A865"/>
<path d="M571.073 548.734C571.073 561.349 558.923 571.575 543.935 571.575C528.946 571.575 516.796 561.349 516.796 548.734C516.796 536.118 528.946 510.664 543.935 510.664C558.923 510.664 571.073 536.118 571.073 548.734Z" fill="#83C082"/>
<path d="M645.533 657.824H658.957L669.897 721.003H634.42L645.533 657.824Z" fill="#93642D"/>
<path d="M645.437 657.824H658.773L664.571 691.829H639.639L645.437 657.824Z" fill="#714D22"/>
<path d="M692.481 686.821C705.864 687.985 696.997 674.093 690.529 661.739C684.06 649.385 670.064 626.145 648.583 626.146C630.979 626.146 597.623 680.675 605.435 685.805C611.684 689.909 626.353 686.689 636.118 680.228C639.047 685.929 643.47 688.597 650.5 689.053C657.531 689.509 661.631 685.359 667.164 680.228C669.117 682.128 680.807 685.805 692.481 686.821Z" fill="#66A865"/>
<path fill-rule="evenodd" clip-rule="evenodd" d="M689.958 660.356C681.891 646.65 667.947 628.488 648.152 628.488C637.971 628.488 622.939 645.278 612.387 661.822C619.569 661.195 628.094 658.212 634.609 653.901C637.792 660.094 643.017 666.534 650.655 667.03C658.294 667.525 663.992 661.064 668.341 653.901C670.132 655.644 679.462 658.762 689.958 660.356Z" fill="#458244"/>
<path d="M692.481 655.43C705.289 658.976 696.997 642.702 690.529 630.348C684.06 617.994 670.064 594.755 648.583 594.755C630.979 594.755 597.623 649.284 605.435 654.414C611.684 658.519 626.353 648.459 636.118 641.998C639.047 647.699 643.47 657.206 650.5 657.662C657.531 658.118 661.631 647.129 667.164 641.998C669.117 643.899 680.807 652.198 692.481 655.43Z" fill="#66A865"/>
<path d="M579.432 676.36H592.856L603.797 766.568H568.319L579.432 676.36Z" fill="#93642D"/>
<path d="M579.336 676.36H592.672L598.471 724.913H573.538L579.336 676.36Z" fill="#714D22"/>
<path d="M626.381 716.672C639.763 717.837 630.897 703.944 624.428 691.59C617.959 679.236 603.964 655.997 582.482 655.997C564.879 655.997 531.522 710.526 539.334 715.657C545.583 719.761 560.252 716.54 570.017 710.08C572.946 715.78 577.369 718.449 584.4 718.905C591.43 719.361 595.53 715.21 601.064 710.08C603.016 711.98 614.706 715.657 626.381 716.672Z" fill="#83C082"/>
<path fill-rule="evenodd" clip-rule="evenodd" d="M623.857 690.207C615.79 676.502 601.847 658.34 582.052 658.34C571.87 658.34 556.838 675.13 546.286 691.674C553.468 691.047 561.993 688.063 568.509 683.753C571.691 689.946 576.916 696.386 584.555 696.881C592.193 697.377 597.891 690.915 602.24 683.753C604.031 685.495 613.362 688.614 623.857 690.207Z" fill="#458244"/>
<path d="M626.381 685.282C639.188 688.828 630.897 672.554 624.428 660.2C617.959 647.846 603.964 624.606 582.482 624.606C564.879 624.606 531.522 679.136 539.334 684.266C545.583 688.37 560.252 678.311 570.017 671.85C572.946 677.551 577.369 687.058 584.4 687.514C591.43 687.97 595.53 676.98 601.064 671.85C603.016 673.75 614.706 682.049 626.381 685.282Z" fill="#66A865"/>
<path fill-rule="evenodd" clip-rule="evenodd" d="M617.82 647.502C620.919 653.2 623.188 657.37 622.824 657.339C612.902 656.479 601.398 652.697 599.738 651.088C596.336 656.672 591.109 660.228 585.135 659.842C579.16 659.455 573.708 655.159 571.219 650.331C562.92 655.803 547.524 657.839 548.605 656.338C550.455 653.77 552.183 650.932 553.828 647.949C563.724 634.267 575.776 622.301 584.371 622.301C594.756 622.301 603.53 627.3 610.691 634.031C611.06 634.834 611.43 635.599 611.807 636.316C613.853 640.21 615.982 644.124 617.82 647.502Z" fill="#458244"/>
<path d="M622.244 648.33C631.521 651.082 624.598 636.882 619.345 626.806C614.091 616.73 603.696 597.841 586.294 596.774C570.021 595.775 540.522 642.644 546.866 646.828C551.941 650.176 565.38 643.576 573.31 638.307C575.689 642.956 579.281 650.71 584.99 651.082C590.7 651.454 594.03 642.491 598.523 638.307C600.109 639.857 613.971 645.875 622.244 648.33Z" fill="#83C082"/>
<rect x="1815.31" y="596.956" width="19.0759" height="77.6323" fill="#93642D"/>
<rect x="1815.36" y="568.253" width="19.0759" height="77.6323" fill="#714D22"/>
<path d="M1824.29 554.61L1878.57 635.771H1770.01L1824.29 554.61Z" fill="#66A865"/>
<path d="M1824.34 524.028L1870.36 592.839H1778.32L1824.34 524.028Z" fill="#83C082"/>
<path d="M1842.03 550.232H1806.66L1801.44 557.741H1847.25L1842.03 550.232Z" fill="#458244"/>
<path d="M1849.88 592.779H1798.77L1793.91 599.787H1854.79L1849.88 592.779Z" fill="#458244"/>
<path d="M1824.95 495.799L1861.53 550.494H1788.37L1824.95 495.799Z" fill="#66A865"/>
<path d="M1824.95 472.622L1854.88 517.385H1795.01L1824.95 472.622Z" fill="#83C082"/>
<path d="M1839.13 517.197H1810.72L1805.5 524.705H1844.35L1839.13 517.197Z" fill="#458244"/>
<path d="M476.222 649.814H489.646L500.586 740.022H465.109L476.222 649.814Z" fill="#93642D"/>
<path d="M476.126 649.814H489.462L495.261 698.367H470.328L476.126 649.814Z" fill="#714D22"/>
<path d="M523.171 690.127C536.553 691.291 527.687 677.398 521.218 665.044C514.749 652.691 500.754 629.451 479.272 629.451C461.669 629.451 428.312 683.98 436.124 689.111C442.373 693.215 457.042 689.994 466.807 683.534C469.736 689.234 474.159 691.903 481.19 692.359C488.22 692.815 492.32 688.664 497.854 683.534C499.806 685.434 511.496 689.111 523.171 690.127Z" fill="#66A865"/>
<path fill-rule="evenodd" clip-rule="evenodd" d="M520.647 663.662C512.58 649.957 498.636 631.795 478.841 631.795C468.66 631.795 453.628 648.585 443.076 665.129C450.258 664.502 458.783 661.518 465.299 657.208C468.481 663.401 473.706 669.841 481.344 670.337C488.983 670.832 494.681 664.37 499.03 657.208C500.821 658.95 510.151 662.069 520.647 663.662Z" fill="#458244"/>
<path d="M523.171 658.736C535.978 662.282 527.687 646.008 521.218 633.654C514.749 621.3 500.754 598.061 479.272 598.061C461.669 598.061 428.312 652.59 436.124 657.72C442.373 661.824 457.042 651.765 466.807 645.304C469.736 651.005 474.159 660.512 481.19 660.968C488.22 661.424 492.32 650.435 497.854 645.304C499.806 647.204 511.496 655.504 523.171 658.736Z" fill="#83C082"/>
<path fill-rule="evenodd" clip-rule="evenodd" d="M514.609 620.956C517.709 626.654 519.978 630.825 519.614 630.793C509.692 629.933 498.188 626.151 496.528 624.542C493.126 630.126 487.899 633.682 481.924 633.296C475.95 632.909 470.498 628.613 468.008 623.785C459.71 629.257 444.314 631.294 445.395 629.792C447.244 627.224 448.973 624.386 450.618 621.403C460.514 607.721 472.566 595.755 481.161 595.755C491.546 595.755 500.32 600.754 507.481 607.485C507.849 608.288 508.22 609.053 508.597 609.77C510.643 613.664 512.772 617.578 514.609 620.956Z" fill="#458244"/>
<path d="M519.033 621.783C528.311 624.536 521.388 610.336 516.134 600.26C510.881 590.184 497.624 574.296 480.223 573.228C463.95 572.229 437.312 616.097 443.655 620.281C448.73 623.629 462.17 617.029 470.1 611.76C472.479 616.41 476.071 624.164 481.78 624.536C487.49 624.908 490.819 615.945 495.313 611.76C496.899 613.31 510.761 619.328 519.033 621.783Z" fill="#66A865"/>
<path fill-rule="evenodd" clip-rule="evenodd" d="M511.549 592.67C513.438 595.546 514.594 597.307 514.395 597.258C513.964 597.151 513.434 597.023 512.826 596.877C507.71 595.642 497.157 593.097 495.261 591.251C494.102 592.506 493.055 593.672 492.096 594.739C487.852 599.468 485.342 602.263 482.504 602.263C478.941 602.263 476.822 599.62 474.126 596.256C472.863 594.68 471.473 592.946 469.748 591.251C459.139 598.27 451.773 597.758 451.773 597.758C451.773 597.758 455.692 585.226 462.555 573.891C468.804 567.788 474.99 563.721 480.001 563.721C486.163 563.721 491.757 565.48 496.784 568.318C496.856 568.452 496.928 568.589 497 568.727C501.619 577.547 507.93 587.158 511.549 592.67Z" fill="#458244"/>
<path d="M510.295 590.21C518.145 594.109 513.32 581.503 508.986 573.052C504.652 564.601 495.275 548.704 480.883 548.704C469.089 548.704 446.741 586.005 451.974 589.515C456.161 592.322 465.989 585.441 472.532 581.022C474.494 584.921 477.457 591.425 482.168 591.737C486.878 592.049 489.625 584.531 493.332 581.022C494.641 582.321 504.014 587.09 510.295 590.21Z" fill="#83C082"/>
<defs>
<filter id="filter0_dd_516_1593" x="0" y="389" width="2416" height="244" filterUnits="userSpaceOnUse" color-interpolation-filters="sRGB">
<feFlood flood-opacity="0" result="BackgroundImageFix"/>
<feColorMatrix in="SourceAlpha" type="matrix" values="0 0 0 0 0 0 0 0 0 0 0 0 0 0 0 0 0 0 127 0" result="hardAlpha"/>
<feOffset dy="4"/>
<feGaussianBlur stdDeviation="2"/>
<feComposite in2="hardAlpha" operator="out"/>
<feColorMatrix type="matrix" values="0 0 0 0 0 0 0 0 0 0 0 0 0 0 0 0 0 0 0.25 0"/>
<feBlend mode="normal" in2="BackgroundImageFix" result="effect1_dropShadow_516_1593"/>
<feColorMatrix in="SourceAlpha" type="matrix" values="0 0 0 0 0 0 0 0 0 0 0 0 0 0 0 0 0 0 127 0" result="hardAlpha"/>
<feOffset dy="4"/>
<feGaussianBlur stdDeviation="2"/>
<feComposite in2="hardAlpha" operator="out"/>
<feColorMatrix type="matrix" values="0 0 0 0 0 0 0 0 0 0 0 0 0 0 0 0 0 0 0.25 0"/>
<feBlend mode="normal" in2="effect1_dropShadow_516_1593" result="effect2_dropShadow_516_1593"/>
<feBlend mode="normal" in="SourceGraphic" in2="effect2_dropShadow_516_1593" result="shape"/>
</filter>
</defs>
</svg>
